<?xml version="1.0" encoding="utf-8"?>
<!-- Generator: Adobe Illustrator 16.0.0, SVG Export Plug-In . SVG Version: 6.00 Build 0)  -->
<!DOCTYPE svg PUBLIC "-//W3C//DTD SVG 1.1//EN" "http://www.w3.org/Graphics/SVG/1.1/DTD/svg11.dtd">
<svg version="1.1" id="Layer_1" xmlns="http://www.w3.org/2000/svg" xmlns:xlink="http://www.w3.org/1999/xlink" x="0px" y="0px"
	 width="39.5px" height="39.5px" viewBox="0 0 39.5 39.5" enable-background="new 0 0 39.5 39.5" xml:space="preserve">
<g>
	<circle fill="#FFFFFF" stroke="#020202" stroke-width="2" stroke-miterlimit="10" cx="19.75" cy="19.75" r="18.75"/>
	<g>
		<path fill="#010101" d="M30.831,24.924c0,0.547-0.446,0.99-0.996,0.99H10.08c-0.551,0-0.996-0.443-0.996-0.99V11.406
			c0-0.547,0.445-0.99,0.996-0.99h19.755c0.55,0,0.996,0.443,0.996,0.99V24.924z"/>
		<g>
			<path fill="#010101" stroke="#FFFFFF" stroke-miterlimit="10" d="M28.356,10.685c0.8,0,1.509,0.368,1.988,0.936l0.307-0.308
				c-0.56-0.646-1.375-1.063-2.295-1.063H11.506c-0.809,0-1.539,0.321-2.087,0.837l0.308,0.308c0.467-0.437,1.09-0.709,1.779-0.709
				H28.356z"/>
			<path fill="#010101" stroke="#FFFFFF" stroke-miterlimit="10" d="M8.891,23.905V13.3c0-0.437,0.117-0.842,0.306-1.203
				l-0.318-0.318c-0.261,0.449-0.423,0.965-0.423,1.521v10.605c0,0.517,0.141,0.998,0.371,1.426l0.318-0.318
				C8.986,24.676,8.891,24.302,8.891,23.905"/>
			<path fill="#010101" stroke="#FFFFFF" stroke-miterlimit="10" d="M30.971,13.3v10.605c0,0.359-0.072,0.701-0.205,1.013
				l0.321,0.319c0.198-0.403,0.32-0.853,0.32-1.332V13.3c0-0.441-0.1-0.86-0.271-1.24l-0.335,0.336
				C30.905,12.678,30.971,12.979,30.971,13.3"/>
			<path fill="#010101" stroke="#FFFFFF" stroke-miterlimit="10" d="M28.356,26.52H11.506c-0.728,0-1.385-0.297-1.859-0.777
				L9.34,26.049c0.555,0.56,1.32,0.906,2.166,0.906h16.851c0.883,0,1.672-0.382,2.23-0.984l-0.307-0.308
				C29.802,26.186,29.12,26.52,28.356,26.52"/>
			<path fill="#010101" stroke="#FFFFFF" stroke-miterlimit="10" d="M11.506,11.121h16.851c0.68,0,1.278,0.318,1.679,0.808
				l0.31-0.309c-0.479-0.567-1.188-0.936-1.988-0.936H11.506c-0.689,0-1.312,0.272-1.779,0.709l0.309,0.309
				C10.424,11.345,10.938,11.121,11.506,11.121"/>
			<path fill="#010101" stroke="#FFFFFF" stroke-miterlimit="10" d="M30.535,13.3v10.605c0,0.233-0.047,0.454-0.114,0.666
				l0.345,0.347c0.133-0.312,0.205-0.653,0.205-1.013V13.3c0-0.32-0.065-0.622-0.17-0.904l-0.347,0.348
				C30.502,12.921,30.535,13.106,30.535,13.3"/>
			<path fill="#010101" stroke="#FFFFFF" stroke-miterlimit="10" d="M11.506,26.52h16.851c0.764,0,1.445-0.334,1.924-0.856
				l-0.31-0.309c-0.399,0.444-0.971,0.729-1.614,0.729H11.506c-0.606,0-1.154-0.249-1.55-0.65l-0.31,0.309
				C10.121,26.223,10.778,26.52,11.506,26.52"/>
			<path fill="#010101" stroke="#FFFFFF" stroke-miterlimit="10" d="M9.326,23.905V13.3c0-0.314,0.071-0.612,0.19-0.883l-0.32-0.32
				c-0.188,0.361-0.306,0.767-0.306,1.203v10.605c0,0.396,0.096,0.771,0.254,1.107l0.331-0.33
				C9.383,24.439,9.326,24.179,9.326,23.905"/>
			<path fill="#010101" stroke="#FFFFFF" stroke-miterlimit="10" d="M24.523,18.674l-0.615,0.615l6.062,6.065
				c0.202-0.225,0.354-0.491,0.45-0.783L24.523,18.674z"/>
			<path fill="#010101" stroke="#FFFFFF" stroke-miterlimit="10" d="M15.629,18.528l-6.153,6.154c0.109,0.282,0.271,0.54,0.48,0.751
				l6.289-6.289L15.629,18.528z"/>
			<path fill="#010101" stroke="#FFFFFF" stroke-miterlimit="10" d="M9.646,25.742c-0.207-0.21-0.375-0.458-0.502-0.729
				l-0.318,0.318c0.141,0.264,0.308,0.509,0.514,0.718L9.646,25.742z"/>
			<path fill="#010101" stroke="#FFFFFF" stroke-miterlimit="10" d="M30.28,25.663l0.307,0.308c0.2-0.218,0.368-0.463,0.501-0.733
				l-0.322-0.319C30.65,25.196,30.479,25.443,30.28,25.663"/>
			<path fill="#010101" stroke="#FFFFFF" stroke-miterlimit="10" d="M9.476,24.683l-0.331,0.33c0.127,0.271,0.295,0.52,0.502,0.729
				l0.31-0.309C9.746,25.223,9.585,24.965,9.476,24.683"/>
			<path fill="#010101" stroke="#FFFFFF" stroke-miterlimit="10" d="M29.971,25.354l0.31,0.309c0.199-0.22,0.37-0.467,0.485-0.745
				l-0.345-0.347C30.325,24.863,30.173,25.13,29.971,25.354"/>
			<path fill="#010101" stroke="#FFFFFF" stroke-miterlimit="10" d="M24.523,18.674l5.931-5.931
				c-0.081-0.304-0.225-0.578-0.419-0.814l-6.127,6.129L24.523,18.674z"/>
			<path fill="#010101" stroke="#FFFFFF" stroke-miterlimit="10" d="M16.245,17.913l-6.21-6.211
				c-0.219,0.201-0.396,0.44-0.519,0.715l6.112,6.111L16.245,17.913z"/>
			<path fill="#010101" stroke="#FFFFFF" stroke-miterlimit="10" d="M20.456,21.507c-0.164,0.166-0.45,0.166-0.616,0l-2.979-2.979
				l-0.616,0.616l2.979,2.979c0.247,0.248,0.574,0.384,0.923,0.384c0.35,0,0.679-0.136,0.926-0.384l2.835-2.834l-0.617-0.615
				L20.456,21.507z"/>
			<path fill="#010101" stroke="#FFFFFF" stroke-miterlimit="10" d="M30.345,11.62c0.193,0.229,0.35,0.489,0.456,0.775l0.335-0.336
				c-0.121-0.274-0.29-0.521-0.484-0.747L30.345,11.62z"/>
			<path fill="#010101" stroke="#FFFFFF" stroke-miterlimit="10" d="M9.727,11.394l-0.308-0.308
				c-0.214,0.201-0.393,0.436-0.541,0.692l0.318,0.318C9.335,11.833,9.511,11.595,9.727,11.394"/>
			<path fill="#010101" stroke="#FFFFFF" stroke-miterlimit="10" d="M10.035,11.702l-0.309-0.309
				c-0.216,0.201-0.392,0.439-0.53,0.703l0.32,0.32C9.64,12.143,9.816,11.903,10.035,11.702"/>
			<path fill="#010101" stroke="#FFFFFF" stroke-miterlimit="10" d="M30.454,12.743l0.347-0.348
				c-0.106-0.286-0.263-0.547-0.456-0.775l-0.31,0.309C30.229,12.165,30.373,12.439,30.454,12.743"/>
			
				<rect x="23.471" y="18.239" transform="matrix(-0.7082 -0.706 0.706 -0.7082 27.6555 48.7773)" fill="#010101" stroke="#FFFFFF" stroke-miterlimit="10" width="0.871" height="0.87"/>
			
				<rect x="15.81" y="18.093" transform="matrix(0.7077 -0.7065 0.7065 0.7077 -8.3425 16.8945)" fill="#010101" stroke="#FFFFFF" stroke-miterlimit="10" width="0.871" height="0.871"/>
		</g>
	</g>
</g>
</svg>
