<?xml version="1.0" encoding="utf-8"?>
<!-- Generator: Adobe Illustrator 16.0.0, SVG Export Plug-In . SVG Version: 6.00 Build 0)  -->
<!DOCTYPE svg PUBLIC "-//W3C//DTD SVG 1.1//EN" "http://www.w3.org/Graphics/SVG/1.1/DTD/svg11.dtd">
<svg version="1.1" id="Layer_1" xmlns="http://www.w3.org/2000/svg" xmlns:xlink="http://www.w3.org/1999/xlink" x="0px" y="0px"
	 width="39.5px" height="39.5px" viewBox="0 0 39.5 39.5" enable-background="new 0 0 39.5 39.5" xml:space="preserve">
<g>
	<circle fill="#FFFFFF" stroke="#020202" stroke-width="2" stroke-miterlimit="10" cx="19.75" cy="19.75" r="18.75"/>
	<g>
		<path fill="#010101" d="M15.37,8.857c0,1.118-0.825,2.023-2.183,2.023c-1.278,0-2.103-0.905-2.103-2.023
			c0-1.145,0.852-2.024,2.157-2.024S15.344,7.713,15.37,8.857z M11.19,25.5V12.479h4.047V25.5H11.19z"/>
		<path fill="#010101" d="M17.66,16.632c0-1.623-0.053-2.982-0.106-4.152h3.515l0.186,1.81h0.08
			c0.533-0.853,1.838-2.104,4.021-2.104c2.662,0,4.659,1.783,4.659,5.618V25.5h-4.048v-7.217c0-1.677-0.585-2.822-2.051-2.822
			c-1.117,0-1.782,0.771-2.076,1.518c-0.105,0.266-0.133,0.64-0.133,1.013V25.5H17.66V16.632z"/>
	</g>
</g>
</svg>
