<svg width="192" height="40" viewBox="0 0 192 40" fill="none" xmlns="http://www.w3.org/2000/svg">
<g clip-path="url(#clip0_1_30)">
<path d="M37.3075 8.20433C49.9496 8.20433 58.0333 17.6146 57.9989 20.1028C57.9634 22.591 49.9491 32.0002 37.3075 32.0002C24.4442 32.0001 16.3147 23.6394 16.3143 20.1028C16.3143 16.566 24.4439 8.20442 37.3075 8.20433ZM2.43734 9.99339C-0.76118 6.29927 14.6395 11.4772 14.7196 20.052C14.6401 28.5411 -0.45528 33.7001 2.3475 30.218L2.43734 30.1096C4.10013 28.1881 5.42786 23.6367 5.43539 19.5637C5.42795 15.5542 4.14165 12.027 2.51547 10.0852L2.43734 9.99339ZM41.6649 11.5129C37.096 11.513 33.3924 15.1797 33.3924 19.7033C33.3924 24.227 37.096 27.8937 41.6649 27.8938C46.2336 27.8938 49.9373 24.2271 49.9373 19.7033C49.9373 15.1796 46.2336 11.5129 41.6649 11.5129ZM41.8875 15.9914C44.019 15.9914 45.7477 17.7021 45.7479 19.8127C45.7479 21.9238 44.0191 23.635 41.8875 23.635C39.7556 23.6348 38.0272 21.9236 38.0272 19.8127C38.0274 17.7023 39.7557 15.9916 41.8875 15.9914ZM32.5086 0.00217771C33.2571 -0.0339502 34.3321 0.301984 35.4871 0.873271L35.7186 0.990459C35.8351 1.05067 35.9527 1.11335 36.0702 1.17796L36.3055 1.30979L36.5418 1.44749C36.6205 1.49416 36.6995 1.54171 36.7782 1.59007L37.0135 1.73753L37.2489 1.88987C39.401 3.30721 41.4104 5.28897 41.7606 6.99729C40.4005 6.77673 38.9437 6.65454 37.3846 6.65452C35.5325 6.65452 33.7781 6.82409 32.1229 7.12425C32.1484 7.05197 32.1735 6.97904 32.1981 6.9055L32.2704 6.68284C32.294 6.60801 32.3172 6.53217 32.3397 6.45628L32.4051 6.22776L32.4666 5.99534C32.872 4.40232 32.9603 2.63982 32.1034 1.14573C31.6136 0.360929 31.8012 0.0361972 32.5086 0.00217771Z" fill="#22A2B8"/>
</g>
<path fill-rule="evenodd" clip-rule="evenodd" d="M131.689 11.9872C135.863 11.9872 139.133 15.6124 139.133 20.2413C139.133 24.8236 135.794 28.4124 131.528 28.4124C130.298 28.4124 129.001 28.0712 127.863 27.4459L127.457 27.2165L127.437 27.5107V39.4184C127.437 39.7763 127.222 39.9816 126.832 39.9988L126.777 40H124.542C124.258 40 123.987 39.7429 123.962 39.4609L123.96 39.4184V12.9679C123.96 12.6834 124.218 12.4122 124.5 12.387L124.542 12.3851H125.738C125.932 12.3851 126.084 12.4473 126.227 12.7435L126.254 12.8019L126.751 14.0867L126.985 13.85L127.075 13.7634L127.173 13.6735C127.19 13.6583 127.207 13.6429 127.224 13.6275L127.333 13.5336C127.351 13.5178 127.37 13.5019 127.39 13.4859L127.51 13.3894C128.355 12.7257 129.733 11.9872 131.689 11.9872ZM167.975 11.9872C170.002 11.9872 171.687 12.6121 172.588 13.1961C172.854 13.3753 173.025 13.7622 172.875 14.0738L172.127 15.4808C172.013 15.685 171.761 15.776 171.564 15.776C171.493 15.776 171.426 15.7637 171.368 15.7425L171.32 15.722L171.175 15.6566L170.975 15.5715L170.822 15.5093L170.646 15.4413L170.517 15.3937L170.38 15.345L170.161 15.2709L170.007 15.2218L169.846 15.1736L169.68 15.1269C169.624 15.1116 169.568 15.0967 169.51 15.0822L169.336 15.0402C168.897 14.9388 168.427 14.8677 167.975 14.8677C166.828 14.8677 166.343 15.279 166.14 15.6659L166.108 15.7319C166.104 15.7428 166.099 15.7537 166.094 15.7646L166.07 15.8289C166.066 15.8395 166.063 15.8501 166.059 15.8605L166.041 15.9222L166.027 15.9814L166.012 16.0645L166.003 16.1395L166 16.1841L165.999 16.2417C165.999 17.0396 166.499 17.5075 167.332 17.9499L167.487 18.0302C167.514 18.0435 167.541 18.0568 167.568 18.0702L167.733 18.1503L167.995 18.2715L168.366 18.4371L169.006 18.7188L169.456 18.9224L169.784 19.0759L169.998 19.179L170.209 19.2828L170.415 19.3876L170.617 19.4936L170.815 19.601L171.008 19.7099C171.071 19.7465 171.134 19.7833 171.196 19.8205L171.379 19.933C172.886 20.8794 173.862 22.0449 173.862 23.9162C173.862 26.4784 171.4 28.4124 168.132 28.4124C166.234 28.4124 164.851 27.9241 163.961 27.4547L163.821 27.3788C163.798 27.3662 163.776 27.3536 163.754 27.3411L163.627 27.2666L163.508 27.1937C163.489 27.1817 163.47 27.1698 163.452 27.1579L163.346 27.0882L163.249 27.0211L163.16 26.9573L163.08 26.8972L162.975 26.815C162.797 26.6969 162.682 26.4503 162.765 26.2332L162.782 26.1928L163.618 24.6378C163.69 24.493 163.844 24.4063 164.025 24.4063C164.118 24.4063 164.22 24.4307 164.313 24.4767L164.498 24.5805L164.632 24.651L164.76 24.7152L164.91 24.7868L165.022 24.8379L165.142 24.8909L165.272 24.9455L165.409 25.0009L165.554 25.0567L165.706 25.1123L165.866 25.1672C165.893 25.1762 165.92 25.1852 165.948 25.1942L166.117 25.247C166.145 25.2556 166.174 25.2642 166.203 25.2726L166.381 25.3221L166.564 25.3686C167.059 25.4885 167.607 25.5716 168.174 25.5716C169.506 25.5716 170.306 24.9969 170.306 24.036C170.306 23.1993 169.827 22.6717 168.773 22.0822L168.602 21.9885L168.421 21.8935L168.231 21.7968L168.03 21.6981L167.82 21.5971L167.486 21.4405L167.13 21.2769C164.093 19.9539 162.683 18.3424 162.683 16.2042C162.683 14.1732 164.336 11.9872 167.975 11.9872ZM76.7601 0C78.5714 0 80.1768 0.432409 81.4326 0.936216L81.6506 1.02579C81.6863 1.04082 81.7217 1.05589 81.7568 1.071L81.9635 1.16197C81.9974 1.17717 82.0309 1.1924 82.064 1.20762L82.2592 1.299L82.4464 1.3901L82.6254 1.48047L82.7961 1.56968L82.9584 1.65729L83.112 1.74285C83.1368 1.75691 83.1613 1.77088 83.1854 1.78472L83.3924 1.90607L83.5787 2.01985L83.7438 2.12455L83.9297 2.24749L84.0428 2.32526C84.1673 2.40393 84.3257 2.57599 84.377 2.81079C84.4214 3.02128 84.374 3.23417 84.2372 3.44075L84.0404 3.73745L83.2391 4.958C83.0411 5.27658 82.7879 5.45044 82.5227 5.45044C82.3962 5.45044 82.2699 5.41273 82.1406 5.33995L81.9647 5.23515C81.3059 4.83151 80.7034 4.50743 80.1547 4.24835L79.9228 4.14126L79.6974 4.04187C79.2162 3.83468 78.7807 3.67996 78.389 3.56606L78.2113 3.51634C78.124 3.49289 78.039 3.47152 77.9563 3.45208L77.7939 3.41574C77.7673 3.4101 77.741 3.40467 77.715 3.39943L77.5617 3.37035C77.5116 3.36143 77.4625 3.35326 77.4144 3.3458L77.2731 3.32552C77.25 3.32248 77.2272 3.31961 77.2046 3.3169L77.0722 3.30255L76.9455 3.29182L76.8247 3.28448L76.7096 3.28026L76.6002 3.27891C74.2244 3.27891 72.9683 4.29204 72.3722 5.36371L72.3118 5.47669C72.2732 5.5521 72.2378 5.62763 72.2053 5.70296L72.1589 5.81576L72.1169 5.92799L72.0791 6.03943C72.0732 6.05792 72.0674 6.07636 72.0618 6.09476L72.0303 6.20452C72.0253 6.22271 72.0206 6.24083 72.016 6.25889L71.9904 6.36642L71.9685 6.47216L71.9504 6.57586L71.9358 6.67727L71.9247 6.77614C71.9231 6.79239 71.9217 6.80853 71.9204 6.82455L71.9142 6.91915L71.9112 7.0106L71.9108 7.05506C71.9108 9.03562 73.1437 10.4591 76.1172 11.8301L76.3841 11.9509C76.4293 11.9711 76.4749 11.9912 76.5209 12.0113L76.8015 12.1319L77.0914 12.2524L77.4768 12.41L77.8611 12.57L78.1162 12.6781L78.4666 12.8297L78.6989 12.9323L78.9299 13.0364L79.2737 13.1952L79.6139 13.3576L79.8383 13.4681L80.0608 13.5804L80.2811 13.6946C80.3176 13.7138 80.3541 13.7331 80.3904 13.7525L80.6071 13.8698L80.8213 13.9893L81.0329 14.111L81.2415 14.2351C81.276 14.2559 81.3104 14.2769 81.3447 14.298L81.5488 14.4258L81.7496 14.5561C81.8492 14.6219 81.9476 14.6888 82.0445 14.7566L82.2366 14.8938L82.4249 15.0339C82.5181 15.1047 82.6098 15.1766 82.7 15.2496L82.8782 15.3973C84.4925 16.766 85.5642 18.5402 85.5642 21.0382C85.5642 25.2407 81.8141 28.4124 76.8384 28.4124C75.0227 28.4124 73.4664 28.0565 72.1985 27.582L71.9711 27.4945C71.747 27.4058 71.5324 27.3136 71.3276 27.2195L71.1261 27.1247C71.06 27.0929 70.995 27.0609 70.9311 27.0289L70.7427 26.9323C70.7119 26.9162 70.6813 26.9 70.651 26.8839L70.4726 26.7869L70.3008 26.69L70.1358 26.5935L69.9775 26.4977L69.8261 26.4029L69.6815 26.3095L69.5437 26.2177L69.4129 26.128L69.289 26.0405L69.1721 25.9557L69.01 25.834L68.8639 25.7201L68.7338 25.6148L68.62 25.5194L68.4666 25.3852L68.377 25.3029L68.3106 25.244L68.2484 25.187L68.1911 25.1309C67.9822 24.9163 67.9023 24.7007 68.1709 24.2468C68.3094 24.0448 68.4473 23.8239 68.584 23.5989L68.6863 23.4295C68.8552 23.152 69.0226 22.8758 69.1993 22.6194C69.392 22.3413 69.6458 22.1792 69.8966 22.1792C70.04 22.1792 70.1762 22.2323 70.2995 22.3344L70.4547 22.4612L70.628 22.5977L70.7849 22.7173L70.9637 22.8495L71.0945 22.9437L71.2342 23.042L71.3825 23.144L71.539 23.2488C71.5658 23.2665 71.5929 23.2843 71.6203 23.3022L71.7887 23.4104L71.9644 23.5201L72.1473 23.6308C72.1784 23.6493 72.2097 23.6678 72.2414 23.6863L72.4343 23.7972C72.5324 23.8526 72.6329 23.9077 72.7355 23.9623L72.9436 24.0708L73.1573 24.1772C74.2386 24.7032 75.5137 25.1314 76.7997 25.1314C79.516 25.1314 81.4871 23.4944 81.4871 21.2372C81.4871 19.4939 80.4101 18.2225 78.6122 17.1181L78.4057 16.9938C78.3008 16.932 78.1937 16.8706 78.0845 16.8098L77.863 16.6886C77.8256 16.6685 77.7879 16.6484 77.7501 16.6284L77.52 16.5088C77.4812 16.4889 77.4421 16.4691 77.4028 16.4493L77.1644 16.3311C77.1242 16.3114 77.0838 16.2918 77.0432 16.2723L76.7967 16.1551L76.545 16.0387L76.2881 15.9228L76.0262 15.8073L75.7595 15.6921L75.2181 15.4638L74.9562 15.3509L74.698 15.2371L74.4437 15.1223L74.1934 15.0064L73.947 14.8893L73.7046 14.7709L73.4664 14.651L73.2325 14.5296L73.0028 14.4065C72.889 14.3446 72.7769 14.2819 72.6664 14.2186L72.4478 14.091C72.0512 13.8552 71.6774 13.6094 71.3288 13.3505L71.1411 13.208C69.2893 11.7695 68.194 9.92842 68.194 7.2145C68.194 7.11467 68.1969 7.01128 68.2028 6.90478L68.214 6.74275C68.2163 6.71537 68.2188 6.68782 68.2214 6.66009L68.2399 6.49168C68.2608 6.32129 68.2891 6.14516 68.3257 5.96477L68.365 5.78302C68.9469 3.2507 71.1366 0 76.7601 0ZM114.149 11.9872C117.809 11.9872 119.01 13.588 119.391 15.9811L119.421 16.1795C119.43 16.2463 119.438 16.3136 119.447 16.3815L119.469 16.5868C119.473 16.6213 119.476 16.6559 119.48 16.6907L119.498 16.9008L119.513 17.1141C119.516 17.1499 119.518 17.1858 119.52 17.2219L119.532 17.4397L119.541 17.6603L119.551 17.9964L119.558 18.3385L119.561 18.686L119.561 18.9207V27.4308C119.561 27.716 119.305 27.9858 119.021 28.0109L118.979 28.0128H117.863C117.628 28.0128 117.513 27.9524 117.372 27.6231L117.348 27.5657L116.856 26.2376L116.66 26.4223C115.261 27.7614 113.696 28.4124 111.875 28.4124C108.901 28.4124 106.901 26.3331 106.901 23.2373C106.901 20.2124 109.339 18.2604 113.112 18.2604C113.34 18.2604 113.565 18.2695 113.782 18.2852L113.967 18.3002L114.148 18.3181L114.325 18.3385C114.354 18.3421 114.383 18.3458 114.411 18.3495L114.581 18.373L114.744 18.3981L114.902 18.4245L115.126 18.4656L115.266 18.4936L115.462 18.5354L115.639 18.5761L115.887 18.6381L116.039 18.6793L116.211 18.7294L116.437 18.8054L116.444 18.5661L116.446 18.3053C116.445 16.8219 116.236 15.9957 115.732 15.4841C115.32 15.0644 114.702 14.8677 113.792 14.8677C112.473 14.8677 110.956 15.113 109.271 15.5931C109.223 15.6061 109.173 15.6124 109.126 15.6124C108.839 15.6124 108.694 15.3544 108.624 15.1206L108.612 15.0797L108.295 13.6078C108.217 13.27 108.335 13.038 108.646 12.9144L108.853 12.8384L109.04 12.7748L109.237 12.7116L109.413 12.6586L109.611 12.6018L109.83 12.5424L109.988 12.5017L110.155 12.4607L110.33 12.4195L110.515 12.3784L110.707 12.3379L110.908 12.2981L111.117 12.2593L111.333 12.2219L111.556 12.1862L111.787 12.1525C111.826 12.147 111.866 12.1417 111.905 12.1364L112.146 12.1062L112.394 12.0787C112.436 12.0744 112.478 12.0702 112.52 12.0661L112.777 12.0433C112.821 12.0397 112.864 12.0364 112.908 12.0331L113.174 12.0156C113.488 11.9974 113.814 11.9872 114.149 11.9872ZM150.782 0C151.735 0 152.658 0.166418 153.481 0.397754L153.702 0.462379L153.919 0.529766C153.954 0.541201 153.99 0.552733 154.025 0.564351L154.233 0.635022L154.434 0.707311L154.63 0.78076C154.662 0.793072 154.693 0.805414 154.725 0.817776L154.91 0.892107C154.94 0.904509 154.97 0.916912 155 0.929307L155.174 1.00349L155.34 1.077L155.499 1.14939L155.649 1.22019L155.791 1.28895L155.924 1.35521L156.161 1.47839L156.359 1.58608L156.576 1.71057L156.678 1.77247C156.784 1.84003 156.86 1.96344 156.89 2.10787C156.914 2.2374 156.897 2.37037 156.843 2.48045L155.814 4.32954C155.689 4.58297 155.562 4.61329 155.466 4.61329C155.35 4.61329 155.205 4.56255 155.019 4.46226L154.806 4.34813L154.624 4.25564L154.397 4.14595L154.202 4.05529L154.06 3.99197L153.911 3.92707L153.753 3.86117L153.588 3.79488L153.417 3.7288L153.241 3.66353C153.211 3.65276 153.18 3.64204 153.15 3.63139L152.966 3.56847C152.281 3.34164 151.508 3.16151 150.782 3.16151C149.068 3.16151 147.34 4.39006 147.291 7.13302L147.29 7.25324V12.3851H149.189L149.213 12.3818H152.334C152.58 12.3818 152.811 12.6022 152.835 12.8424L152.837 12.8826V14.8524C152.837 15.0945 152.618 15.3282 152.375 15.3521L152.334 15.3541H149.213L149.18 15.3475H147.29V27.4308C147.29 27.8411 146.876 27.9638 146.58 27.9991L146.502 28.0067C146.49 28.0077 146.478 28.0085 146.466 28.0092L146.374 28.0128H144.353C144.07 28.0128 143.798 27.7565 143.773 27.4735L143.771 27.4308V15.3475H141.718C141.412 15.3475 141.163 15.1111 141.14 14.8124L141.139 14.7671V12.9679C141.139 12.6413 141.354 12.4082 141.67 12.3867L141.718 12.3851H143.771V7.25324C143.771 2.91709 146.589 0 150.782 0ZM158.617 12.3851C158.903 12.3851 159.171 12.6427 159.196 12.9254L159.197 12.9679V27.4308C159.197 27.716 158.943 27.9858 158.66 28.0109L158.617 28.0128H156.341C156.057 28.0128 155.786 27.7565 155.761 27.4735L155.759 27.4308V12.9679C155.759 12.6834 156.016 12.4122 156.298 12.387L156.341 12.3851H158.617ZM179.959 0.399054C180.245 0.399054 180.516 0.655608 180.541 0.937349L180.543 0.979769V13.8675L180.909 13.6078C182.408 12.534 183.952 11.9872 185.509 11.9872C189.532 11.9872 191.951 14.7038 191.999 19.2624L192 19.4011V27.4308C192 27.716 191.743 27.9858 191.459 28.0109L191.416 28.0128H189.181C188.877 28.0128 188.626 27.7764 188.602 27.4763L188.601 27.4308V19.3221C188.601 16.6822 187.267 15.1067 185.032 15.1067C183.402 15.1067 182.121 15.8804 181.348 16.6313L181.236 16.7437C180.876 17.117 180.644 17.4747 180.561 17.7172L180.543 17.7767V27.4308C180.543 27.7845 180.337 27.9932 179.973 28.0115L179.92 28.0128H177.644C177.362 28.0128 177.091 27.7565 177.066 27.4735L177.064 27.4308V0.979769C177.064 0.692085 177.316 0.425645 177.601 0.400922L177.644 0.399054H179.959ZM97.2096 11.9872C101.22 11.9872 102.808 14.3281 103.391 16.6773L103.438 16.8758C103.453 16.9419 103.467 17.008 103.481 17.074L103.519 17.2716C103.525 17.3045 103.531 17.3373 103.536 17.3701L103.568 17.5663C103.573 17.5989 103.578 17.6314 103.582 17.6639L103.608 17.8579C103.612 17.8901 103.616 17.9222 103.62 17.9542L103.64 18.1453L103.658 18.3342C103.66 18.3654 103.663 18.3966 103.665 18.4276L103.677 18.6124L103.687 18.7941L103.694 18.9723L103.698 19.1469L103.701 19.3175L103.701 27.4308C103.701 27.716 103.444 27.9858 103.162 28.0109L103.119 28.0128H100.844C100.54 28.0128 100.288 27.7764 100.265 27.4763L100.263 27.4308V19.2411C100.263 16.6167 98.9907 15.1067 96.7707 15.1067C94.6769 15.1067 93.1018 16.357 92.4633 17.1556L92.3926 17.2473C92.293 17.3815 92.223 17.4996 92.1851 17.5921L92.1736 17.622L92.1607 17.6524V27.4308C92.1607 27.8038 92.0561 27.9986 91.4867 28.012L91.4215 28.0128H89.3473C89.0613 28.0128 88.794 27.7565 88.7692 27.4735L88.7673 27.4308V12.9679C88.7673 12.6834 89.021 12.4122 89.3045 12.387L89.3473 12.3851H90.5035C90.716 12.3851 90.8862 12.5033 90.9589 12.6949L90.973 12.737L91.555 14.3906L91.7741 14.1405L91.8218 14.0902L91.8792 14.0334L91.9461 13.9706L92.0225 13.9024L92.1082 13.8293L92.203 13.7518L92.3067 13.6705L92.4192 13.5859C92.4387 13.5716 92.4585 13.5571 92.4787 13.5426L92.6041 13.4541L92.7379 13.3637C92.7609 13.3486 92.7842 13.3333 92.8079 13.318L92.9539 13.2258L93.108 13.133L93.27 13.0403L93.4396 12.948C94.3935 12.4432 95.6893 11.9872 97.2096 11.9872ZM113.431 20.3806C111.359 20.3806 110.02 21.4865 110.02 23.1974C110.02 24.7816 111.12 25.9301 112.633 25.9301C114.228 25.9301 115.789 24.7689 116.343 23.901L116.403 23.8042V21.1048L116.323 21.049L116.296 21.0316L116.23 20.994L116.151 20.9528C116.137 20.9457 116.122 20.9385 116.106 20.9312L116.007 20.8862C115.989 20.8785 115.971 20.8708 115.952 20.863L115.834 20.8156C115.772 20.7917 115.705 20.7675 115.635 20.7434L115.488 20.6955L115.331 20.6486C114.818 20.5022 114.157 20.3806 113.431 20.3806ZM131.206 15.1067C129.574 15.1067 128.439 16.0011 127.838 16.7547L127.753 16.8639C127.646 17.0078 127.559 17.1444 127.493 17.266L127.447 17.3543L127.409 17.4363L127.379 17.5112L127.357 17.5734V24.079L127.442 24.15L127.531 24.2165L127.647 24.2979L127.759 24.372L127.846 24.4264L127.942 24.484L128.047 24.5442L128.161 24.6063L128.284 24.6697L128.415 24.7337C129.046 25.0328 129.951 25.3311 131.047 25.3311C133.744 25.3311 135.776 23.143 135.776 20.2413C135.776 17.268 133.854 15.1067 131.206 15.1067Z" fill="#22A2B8"/>
<defs>
<clipPath id="clip0_1_30">
<rect width="60" height="32" fill="white"/>
</clipPath>
</defs>
</svg>
