<?xml version="1.0" encoding="utf-8"?>
<!-- Generator: Adobe Illustrator 16.0.0, SVG Export Plug-In . SVG Version: 6.00 Build 0)  -->
<!DOCTYPE svg PUBLIC "-//W3C//DTD SVG 1.1//EN" "http://www.w3.org/Graphics/SVG/1.1/DTD/svg11.dtd">
<svg version="1.1" xmlns="http://www.w3.org/2000/svg" xmlns:xlink="http://www.w3.org/1999/xlink" x="0px" y="0px"
	 width="348.179px" height="134.569px" viewBox="0 0 348.179 134.569" enable-background="new 0 0 348.179 134.569"
	 xml:space="preserve">
<g id="Layer_2">
	<rect x="-19.31" y="-10.017" width="379.756" height="156"/>
</g>
<g id="Layer_1">
	<g>
		<path fill="#77C4BC" d="M30.394,12.106c0.66,1.468,1.081,2.42,1.265,2.86c0.183,0.44,0.348,1.174,0.495,2.2
			c-0.88-0.732-1.65-1.356-2.31-1.87c-0.66-0.512-1.32-0.971-1.98-1.375c-0.66-0.402-1.394-0.751-2.2-1.045
			c-0.808-0.292-1.76-0.55-2.86-0.77c-2.934-0.366-5.703-0.256-8.305,0.33c-2.604,0.588-4.804,1.522-6.6,2.805
			c-1.798,1.284-3.063,2.86-3.795,4.73c-0.734,1.87-0.734,3.905,0,6.105c0.806,2.42,2.052,4.749,3.74,6.985
			c1.686,2.238,3.611,4.419,5.775,6.545c2.162,2.128,4.472,4.125,6.93,5.995c2.456,1.87,4.802,3.63,7.04,5.28
			c2.236,1.65,4.307,3.135,6.215,4.455c1.906,1.32,3.373,2.458,4.4,3.41c2.272-1.172,4.4-2.163,6.38-2.97
			c1.98-0.806,4.032-1.612,6.16-2.42h0.66c0.292,0.074,0.33,0.294,0.11,0.66c-0.66,0.587-1.449,1.21-2.365,1.87
			c-0.918,0.66-1.853,1.339-2.805,2.035c-0.954,0.698-1.889,1.375-2.805,2.035c-0.918,0.66-1.743,1.248-2.475,1.76
			c2.126,2.128,3.52,4.052,4.18,5.775c0.66,1.725,0.696,3.41,0.11,5.061c-0.588,1.649-1.798,3.338-3.63,5.06
			c-1.834,1.722-4.218,3.575-7.15,5.556c-1.908,1.319-3.96,2.455-6.16,3.409c-2.2,0.952-4.235,1.521-6.105,1.705
			c-1.87,0.183-3.374-0.165-4.51-1.045c-1.138-0.88-1.523-2.53-1.155-4.95c1.172-3.96,3.336-7.626,6.49-11
			c3.152-3.372,6.782-6.781,10.89-10.229c0-0.22-0.715-0.842-2.145-1.87c-1.43-1.026-3.264-2.346-5.5-3.96
			c-2.238-1.612-4.694-3.482-7.37-5.61c-2.678-2.126-5.244-4.362-7.7-6.71c-2.458-2.346-4.639-4.802-6.545-7.37
			c-1.908-2.566-3.19-5.096-3.85-7.59c-0.88-3.152-1.081-5.902-0.605-8.25c0.478-2.346,1.246-4.307,2.31-5.885
			c1.062-1.576,2.236-2.805,3.52-3.685c1.282-0.88,2.327-1.466,3.135-1.76c1.686-0.512,3.391-0.952,5.115-1.32
			c1.722-0.366,3.465-0.476,5.225-0.33c1.76,0.148,3.537,0.643,5.335,1.485C26.745,9.045,28.56,10.346,30.394,12.106z
			 M21.374,81.736c-0.148,0.513,0.036,0.935,0.55,1.265c0.512,0.33,1.356,0.457,2.53,0.385c1.172-0.073,2.657-0.422,4.455-1.045
			c1.796-0.623,3.941-1.668,6.435-3.135c1.833-1.246,3.245-2.602,4.235-4.07c0.99-1.465,1.576-2.914,1.76-4.344
			c0.182-1.431-0.055-2.75-0.715-3.961c-0.66-1.209-1.76-2.181-3.3-2.914c-0.734,0.367-1.962,1.229-3.685,2.584
			c-1.724,1.358-3.484,2.916-5.28,4.676c-1.798,1.76-3.393,3.594-4.785,5.5C22.18,78.584,21.446,80.269,21.374,81.736z"/>
		<path fill="#77C4BC" d="M57.454,0.116c0.072,0.22,0.146,1.155,0.22,2.805c0.072,1.65,0.127,3.759,0.165,6.325
			c0.036,2.568,0.055,5.482,0.055,8.745c0,3.264,0.017,6.619,0.055,10.065c0.036,3.448,0.055,6.857,0.055,10.23
			c0,3.374,0,6.473,0,9.295c0,2.824,0,5.208,0,7.15c0,1.944,0,3.245,0,3.905c0.806-3.592,1.961-6.562,3.465-8.91
			c1.502-2.346,2.877-3.592,4.125-3.74c1.466-0.292,2.585,0.019,3.355,0.935c0.77,0.918,1.392,2.164,1.87,3.74
			c0.476,1.578,0.953,3.337,1.43,5.28c0.476,1.944,1.117,3.795,1.925,5.555c0.806,1.76,1.906,3.319,3.3,4.674
			c1.392,1.358,3.3,2.184,5.72,2.476c-1.908,1.614-3.613,2.348-5.115,2.2c-1.504-0.146-2.843-0.807-4.015-1.98
			c-1.174-1.172-2.2-2.676-3.08-4.51c-0.88-1.832-1.614-3.63-2.2-5.39c-0.588-1.76-1.064-3.3-1.43-4.62
			c-0.368-1.32-0.624-2.09-0.77-2.31c-0.44-0.586-0.918-0.623-1.43-0.11c-0.514,0.514-1.045,1.32-1.595,2.42
			c-0.55,1.1-1.064,2.365-1.54,3.795c-0.478,1.43-0.899,2.788-1.265,4.07c-0.368,1.283-0.66,2.364-0.88,3.244
			c-0.22,0.881-0.33,1.284-0.33,1.211c-0.22,0.953-0.404,2.199-0.55,3.739c-0.148,1.54-0.239,3.063-0.275,4.565
			c-0.038,1.504-0.038,2.859,0,4.07c0.036,1.209,0.127,1.961,0.275,2.254c-0.514,0-1.248-0.164-2.2-0.494
			c-0.954-0.33-1.688-0.495-2.2-0.495c0-2.2,0-5.077,0-8.636c0-3.556,0-7.516,0-11.879c0-4.362-0.019-9.037-0.055-14.025
			c-0.038-4.986-0.11-10.027-0.22-15.125c-0.11-5.096-0.239-10.156-0.385-15.18c-0.148-5.022-0.368-9.771-0.66-14.245
			c0-0.146,0.44-0.421,1.32-0.825C55.474-0.011,56.426-0.104,57.454,0.116z"/>
		<path fill="#77C4BC" d="M84.622,46.316c1.393,0.074,2.933,0.275,4.62,0.605c1.686,0.33,3.336,0.77,4.95,1.32
			c1.612,0.55,3.097,1.174,4.455,1.87c1.356,0.698,2.475,1.485,3.355,2.365c0.88,0.808,1.392,2.035,1.54,3.685
			c0.146,1.65,0.036,3.465-0.33,5.445c-0.368,1.98-0.935,4.016-1.705,6.105s-1.633,3.979-2.585,5.664
			c-0.954,1.688-1.98,3.08-3.08,4.181c-1.1,1.1-2.128,1.649-3.08,1.649c-1.614,0-2.97-0.385-4.07-1.154
			c-1.1-0.771-1.98-1.705-2.64-2.805c-0.66-1.101-1.155-2.256-1.485-3.466s-0.531-2.255-0.605-3.135
			c-0.22-3.886-0.256-7.332-0.11-10.34c0.148-3.006,0.402-5.5,0.77-7.48c-0.22-0.366-0.44-0.696-0.66-0.99
			c-0.22-0.292-0.44-0.567-0.66-0.825c-0.22-0.256-0.476-0.495-0.77-0.715c0.294-0.146,0.588-0.366,0.88-0.66
			C84,47.196,84.402,46.756,84.622,46.316z M88.582,72.497c0.22,0.293,0.512,0.604,0.88,0.935c0.366,0.329,0.825,0.587,1.375,0.77
			c0.55,0.185,1.117,0.203,1.705,0.056c0.586-0.146,1.21-0.551,1.87-1.211c1.76-1.832,3.08-3.721,3.96-5.664
			c0.88-1.942,1.447-3.776,1.705-5.5c0.256-1.722,0.22-3.245-0.11-4.565s-0.863-2.272-1.595-2.86
			c-0.587-0.366-1.083-0.677-1.485-0.935c-0.404-0.256-0.918-0.495-1.54-0.715c-0.624-0.22-1.413-0.458-2.365-0.715
			c-0.954-0.256-2.2-0.605-3.74-1.045c-0.734,2.348-1.248,4.694-1.54,7.04c-0.294,2.348-0.423,4.493-0.385,6.435
			c0.036,1.944,0.182,3.63,0.44,5.06C88.013,71.011,88.289,71.984,88.582,72.497z"/>
		<path fill="#77C4BC" d="M112.672,45.767c0,2.054-0.019,4.107-0.055,6.16c-0.038,2.054-0.074,4.034-0.11,5.94
			c-0.038,1.908-0.074,3.704-0.11,5.391c-0.038,1.688-0.093,3.189-0.165,4.51c0-0.293,0.165-1.008,0.495-2.145
			s0.787-2.438,1.375-3.906c0.586-1.466,1.227-3.025,1.925-4.675c0.696-1.65,1.447-3.116,2.255-4.4
			c0.806-1.282,1.631-2.292,2.475-3.025c0.842-0.732,1.631-0.952,2.365-0.66c1.612,0.734,2.75,1.798,3.41,3.19
			c0.66,1.394,1.136,2.989,1.43,4.785c0.292,1.797,0.586,3.795,0.88,5.995c0.292,2.199,0.952,4.51,1.98,6.93
			c0.44,1.1,1.081,1.908,1.925,2.42c0.842,0.514,1.65,0.88,2.42,1.1c0.77,0.221,1.392,0.35,1.87,0.385
			c0.476,0.039,0.641,0.166,0.495,0.386c-1.833,1.394-3.41,1.87-4.73,1.43c-1.32-0.44-2.438-1.411-3.355-2.915
			c-0.917-1.502-1.669-3.3-2.255-5.39c-0.588-2.09-1.119-4.106-1.595-6.05c-0.478-1.942-0.899-3.592-1.265-4.95
			c-0.368-1.356-0.77-2.035-1.21-2.035c-0.66,0.074-1.375,0.698-2.145,1.87c-0.77,1.174-1.559,2.64-2.365,4.4
			c-0.808,1.76-1.578,3.685-2.31,5.775c-0.734,2.091-1.413,4.053-2.035,5.886c-0.624,1.834-1.119,3.409-1.485,4.729
			c-0.368,1.319-0.587,2.128-0.66,2.42c-1.1,0-1.779,0.036-2.035,0.11c-0.258,0.072-0.679-0.293-1.265-1.101
			c0.366-6.452,0.495-12.558,0.385-18.315c-0.11-5.756-0.275-10.761-0.495-15.015c0-0.66,0.165-0.99,0.495-0.99
			s0.696,0.148,1.1,0.44c0.402,0.294,0.825,0.588,1.265,0.88C112.012,45.62,112.378,45.767,112.672,45.767z"/>
		<path fill="#77C4BC" d="M161.622,46.977c-0.074,0.44-0.239,1.357-0.495,2.75c-0.258,1.394-0.533,3.025-0.825,4.895
			c-0.294,1.87-0.55,3.833-0.77,5.885c-0.22,2.054-0.349,3.999-0.385,5.831c-0.038,1.834,0.072,3.393,0.33,4.674
			c0.256,1.285,0.677,2.073,1.265,2.365c1.687,0.809,3.41,0.533,5.17-0.824c1.76-1.356,3.812-3.428,6.16-6.215
			c0.22,0,0.237,0.293,0.055,0.879c-0.184,0.588-0.478,1.229-0.88,1.926c-0.404,0.697-0.808,1.394-1.21,2.09
			c-0.404,0.697-0.715,1.154-0.935,1.375c-0.588,0.734-1.43,1.559-2.53,2.475c-1.1,0.918-2.274,1.65-3.52,2.2
			c-1.248,0.55-2.439,0.789-3.575,0.716c-1.138-0.072-2.073-0.732-2.805-1.98c-0.368-0.881-0.588-1.961-0.66-3.245
			c-0.074-1.282-0.074-2.585,0-3.905c0.072-1.32,0.182-2.529,0.33-3.63c0.146-1.101,0.256-1.906,0.33-2.42
			c-1.54,2.86-3.3,5.573-5.28,8.14c-1.98,2.568-3.924,4.584-5.83,6.051c-1.908,1.467-3.668,2.254-5.28,2.365
			c-1.614,0.109-2.86-0.826-3.74-2.806c-0.512-1.906-0.512-4.052,0-6.435c0.514-2.383,1.284-4.527,2.31-6.436
			c1.54-2.64,3.152-5.06,4.84-7.26c1.686-2.2,3.482-4.07,5.39-5.61c1.906-1.54,3.905-2.657,5.995-3.355
			C157.167,46.775,159.348,46.61,161.622,46.977z M140.941,74.917c0.732,0.147,1.906-0.402,3.52-1.65
			c1.612-1.246,3.3-2.987,5.06-5.225c1.76-2.236,3.355-4.841,4.785-7.811c1.43-2.97,2.365-6.105,2.805-9.405
			c-0.294,0-0.715,0-1.265,0c-0.55,0-1.192,0.22-1.925,0.66c-2.788,1.834-5.17,3.979-7.15,6.435c-1.98,2.458-3.52,4.839-4.62,7.15
			s-1.76,4.383-1.98,6.215C139.951,73.12,140.208,74.33,140.941,74.917z"/>
		<path fill="#77C4BC" d="M240.488,28.716c-1.1,1.248-2.879,2.475-5.335,3.685c-2.457,1.21-5.17,2.329-8.14,3.355
			c-2.97,1.028-5.94,1.925-8.91,2.695c-2.97,0.77-5.483,1.375-7.534,1.815c0.731,1.98,1.611,3.52,2.639,4.62
			c1.027,1.1,2.347,2.458,3.961,4.07c2.42,1.908,4.51,3.539,6.27,4.895c1.76,1.357,3.428,2.585,5.005,3.685
			c1.576,1.1,3.19,2.145,4.84,3.135c1.65,0.99,3.575,2.109,5.775,3.355c2.933,1.174,5.206,2.018,6.82,2.53
			c1.612,0.514,2.859,0.862,3.739,1.045c0.881,0.184,1.503,0.274,1.87,0.274c0.366,0,0.771,0.11,1.21,0.33
			c0.146,0.44-0.184,0.753-0.989,0.936c-0.809,0.184-1.761,0.275-2.86,0.275s-2.219-0.056-3.355-0.166
			c-1.138-0.109-1.962-0.236-2.475-0.385c-1.1-0.292-2.384-0.695-3.85-1.21c-1.468-0.513-3.19-1.228-5.17-2.146
			c-1.98-0.916-4.199-2.125-6.655-3.629c-2.458-1.502-5.188-3.427-8.195-5.775c-1.247-0.952-2.384-1.777-3.409-2.475
			c-1.028-0.696-1.908-1.301-2.641-1.815c-0.808-0.586-1.578-1.1-2.311-1.54c0.146,0.88,0.348,2.145,0.605,3.795
			c0.256,1.65,0.531,3.503,0.825,5.555c0.292,2.054,0.604,4.18,0.935,6.38c0.33,2.199,0.642,4.289,0.936,6.27
			c0.292,1.98,0.586,3.74,0.88,5.28c0.292,1.54,0.55,2.64,0.771,3.3c-1.101,0.439-2.164,0.512-3.19,0.22
			c-1.028-0.294-1.798-0.403-2.31-0.329c-0.295-4.841-0.789-9.937-1.486-15.291c-0.697-5.352-1.264-11.256-1.704-17.709
			c-0.074-0.22-0.093-0.275-0.056-0.165c0.037,0.11,0.072,0.203,0.11,0.275c0.036,0.074,0.036,0.074,0,0
			c-0.038-0.072-0.129-0.366-0.274-0.88c-0.809-1.1-1.449-1.925-1.926-2.475c-0.478-0.55-0.935-1.045-1.375-1.485
			c-0.439-0.44-0.918-0.935-1.43-1.485c-0.514-0.55-1.248-1.411-2.2-2.585c0.22-0.292,0.788-0.55,1.705-0.77
			c0.916-0.22,1.925-0.512,3.024-0.88c-0.367-2.492-0.659-4.821-0.879-6.985c-0.221-2.162-0.44-4.271-0.66-6.325
			c-0.221-2.052-0.44-4.087-0.66-6.105c-0.221-2.016-0.479-4.161-0.77-6.435c-0.66,0-2.365-0.055-5.115-0.165
			c-2.75-0.11-5.848-0.201-9.295-0.275c-0.586-0.366-1.045-0.677-1.375-0.935c-0.33-0.256-0.421-0.971-0.275-2.145
			c1.248-0.146,2.843-0.201,4.785-0.165c1.942,0.038,3.922,0.093,5.939,0.165c2.017,0.074,3.961,0.184,5.83,0.33
			c1.87,0.148,3.392,0.258,4.565,0.33c9.093,1.028,16.261,2.403,21.505,4.125c5.242,1.724,9.037,3.539,11.385,5.445
			c2.347,1.908,3.465,3.814,3.355,5.72C242.854,25.784,242.028,27.396,240.488,28.716z M208.919,36.856
			c2.42-0.44,5.297-1.155,8.635-2.145c3.336-0.99,6.525-2.052,9.57-3.19c3.042-1.136,5.627-2.31,7.755-3.52
			c2.126-1.21,3.152-2.327,3.08-3.355v-0.99c-0.294-1.1-1.468-2.236-3.521-3.41c-2.054-1.172-4.603-2.272-7.645-3.3
			c-3.045-1.026-6.344-1.98-9.9-2.86c-3.558-0.88-6.984-1.54-10.285-1.98c0.293,3.228,0.586,6.894,0.881,11
			C207.78,27.214,208.259,31.796,208.919,36.856z"/>
		<path fill="#77C4BC" d="M263.479,48.187c0.22-0.072,0.842-0.275,1.869-0.605c1.026-0.33,1.87-0.385,2.53-0.165
			c2.126-0.072,3.758,0.478,4.896,1.65c1.136,1.174,1.227,3.448,0.274,6.82c-1.394,3.74-3.245,6.858-5.555,9.35
			c-2.31,2.494-5.043,4.878-8.195,7.149c0.732,1.908,1.832,2.971,3.3,3.19c1.467,0.22,3.007-0.017,4.62-0.715
			c1.612-0.696,3.19-1.631,4.73-2.805c1.54-1.173,2.786-2.2,3.74-3.08c1.54-1.32,2.767-2.438,3.685-3.354
			c0.916-0.917,1.888-2.035,2.915-3.355c0.22-0.146,0.348-0.127,0.385,0.055c0.036,0.184,0.018,0.459-0.055,0.825
			c-0.074,0.368-0.184,0.88-0.33,1.54c-0.22,0.514-0.44,0.973-0.66,1.375c-0.22,0.404-0.532,0.844-0.935,1.32
			c-0.404,0.478-0.936,1.045-1.596,1.705c-0.659,0.66-1.468,1.539-2.42,2.64c-1.1,1.028-2.163,2.034-3.189,3.024
			c-1.028,0.99-2.109,1.854-3.245,2.586c-1.138,0.733-2.384,1.247-3.74,1.539c-1.357,0.295-2.915,0.295-4.675,0
			c-1.468-0.512-2.64-1.062-3.52-1.649c-0.881-0.587-1.56-1.191-2.035-1.815c-0.479-0.622-0.825-1.191-1.045-1.705
			c-0.221-0.512-0.368-0.951-0.44-1.32c-0.368-1.465-0.514-3.445-0.44-5.939c0.072-2.492,0.807-5.72,2.2-9.68
			c0.952-2.052,1.98-3.795,3.08-5.225C260.729,50.111,262.011,48.994,263.479,48.187z M258.638,67.656
			c0.952-0.513,2.071-1.228,3.355-2.146c1.282-0.916,2.492-1.979,3.63-3.189c1.136-1.21,2.126-2.547,2.97-4.015
			c0.843-1.466,1.302-3.006,1.375-4.62c0.221-1.1,0.183-1.87-0.109-2.31c-0.148-0.22-0.294-0.33-0.44-0.33
			c-1.248-0.586-2.494-0.402-3.74,0.55c-1.247,0.954-2.384,2.31-3.409,4.07c-1.028,1.76-1.89,3.723-2.585,5.885
			C258.985,63.716,258.638,65.751,258.638,67.656z"/>
		<path fill="#77C4BC" d="M292.628,48.187c0.22-0.072,0.842-0.275,1.869-0.605c1.026-0.33,1.87-0.385,2.53-0.165
			c2.126-0.072,3.758,0.478,4.896,1.65c1.136,1.174,1.227,3.448,0.274,6.82c-1.394,3.74-3.245,6.858-5.555,9.35
			c-2.31,2.494-5.043,4.878-8.195,7.149c0.732,1.908,1.832,2.971,3.3,3.19c1.467,0.22,3.007-0.017,4.62-0.715
			c1.612-0.696,3.19-1.631,4.73-2.805c1.54-1.173,2.786-2.2,3.74-3.08c1.54-1.32,2.767-2.438,3.685-3.354
			c0.916-0.917,1.888-2.035,2.915-3.355c0.22-0.146,0.348-0.127,0.385,0.055c0.036,0.184,0.018,0.459-0.055,0.825
			c-0.074,0.368-0.184,0.88-0.33,1.54c-0.22,0.514-0.44,0.973-0.66,1.375c-0.22,0.404-0.532,0.844-0.935,1.32
			c-0.404,0.478-0.936,1.045-1.596,1.705c-0.659,0.66-1.468,1.539-2.42,2.64c-1.1,1.028-2.163,2.034-3.189,3.024
			c-1.028,0.99-2.109,1.854-3.245,2.586c-1.138,0.733-2.384,1.247-3.74,1.539c-1.357,0.295-2.915,0.295-4.675,0
			c-1.468-0.512-2.64-1.062-3.52-1.649c-0.881-0.587-1.56-1.191-2.035-1.815c-0.479-0.622-0.825-1.191-1.045-1.705
			c-0.221-0.512-0.368-0.951-0.44-1.32c-0.368-1.465-0.514-3.445-0.44-5.939c0.072-2.492,0.807-5.72,2.2-9.68
			c0.952-2.052,1.98-3.795,3.08-5.225C289.878,50.111,291.16,48.994,292.628,48.187z M287.787,67.656
			c0.952-0.513,2.071-1.228,3.355-2.146c1.282-0.916,2.492-1.979,3.63-3.189c1.136-1.21,2.126-2.547,2.97-4.015
			c0.843-1.466,1.302-3.006,1.375-4.62c0.221-1.1,0.183-1.87-0.109-2.31c-0.148-0.22-0.294-0.33-0.44-0.33
			c-1.248-0.586-2.494-0.402-3.74,0.55c-1.247,0.954-2.384,2.31-3.409,4.07c-1.028,1.76-1.89,3.723-2.585,5.885
			C288.135,63.716,287.787,65.751,287.787,67.656z"/>
		<path fill="#77C4BC" d="M348.179,21.457c-0.22,1.32-0.478,2.714-0.771,4.18c-0.294,1.468-0.604,2.86-0.935,4.18
			s-0.605,2.458-0.825,3.41c-0.22,0.954-0.367,1.54-0.439,1.76c-0.44,1.248-1.028,2.86-1.761,4.84
			c-0.733,1.98-1.595,4.053-2.585,6.215c-0.989,2.164-2.108,4.328-3.354,6.49c-1.248,2.164-2.53,4.015-3.851,5.555
			c0,1.1,0.128,2.953,0.386,5.555c0.256,2.604,0.566,5.408,0.935,8.415c0.366,3.008,0.715,5.958,1.045,8.854
			s0.531,5.151,0.605,6.766c-0.368,0.365-0.698,0.292-0.99-0.221c-0.294-0.514-0.734-1.394-1.32-2.64
			c-0.439-1.907-0.789-3.668-1.045-5.28c-0.258-1.611-0.495-3.244-0.715-4.895s-0.459-3.391-0.715-5.225
			c-0.258-1.833-0.643-3.923-1.155-6.271c-1.394,1.76-3.062,3.759-5.005,5.995c-1.944,2.238-3.96,4.218-6.05,5.939
			c-2.09,1.725-4.145,2.934-6.16,3.631c-2.018,0.695-3.759,0.385-5.225-0.936c-0.881-1.172-1.266-2.547-1.155-4.125
			c0.11-1.576,0.55-3.189,1.32-4.84c0.77-1.65,1.76-3.281,2.97-4.895s2.438-3.117,3.685-4.511c1.246-1.392,2.42-2.602,3.521-3.63
			c1.1-1.026,1.906-1.76,2.42-2.2c1.026-0.66,1.887-1.191,2.585-1.595c0.696-0.402,1.32-0.732,1.87-0.99
			c0.55-0.256,1.117-0.44,1.705-0.55c0.586-0.11,1.319-0.127,2.199-0.055c-0.147-1.686-0.238-3.702-0.274-6.05
			c-0.038-2.346-0.038-4.711,0-7.095c0.036-2.382,0.11-4.601,0.22-6.655c0.11-2.052,0.275-3.63,0.495-4.73
			c0.146-1.612,0.495-3.3,1.045-5.06c0.55-1.76,1.246-3.465,2.09-5.115c0.843-1.65,1.777-3.116,2.806-4.4
			c1.025-1.282,2.145-2.2,3.354-2.75c1.21-0.55,2.456-0.677,3.74-0.385c1.282,0.294,2.547,1.21,3.795,2.75
			c1.026,1.248,1.54,2.805,1.54,4.675S348.179,19.404,348.179,21.457z M317.709,61.057c-1.98,2.054-3.43,3.942-4.346,5.665
			c-0.917,1.724-1.669,3.318-2.255,4.785c0,0.22,0,0.568,0,1.045c0,0.478,0.056,0.935,0.165,1.375c0.11,0.439,0.33,0.824,0.66,1.154
			s0.861,0.424,1.595,0.275c0.732-0.292,1.338-0.586,1.815-0.88c0.476-0.292,0.916-0.604,1.32-0.935
			c0.401-0.33,0.842-0.678,1.319-1.045c0.477-0.367,1.081-0.843,1.815-1.431c1.026-1.101,2.291-2.347,3.795-3.74
			c1.502-1.392,2.822-2.86,3.96-4.399c1.136-1.541,1.887-3.116,2.255-4.73c0.366-1.612-0.11-3.19-1.43-4.73
			c-0.515,0-1.045,0.074-1.596,0.22c-0.55,0.147-1.229,0.495-2.034,1.045c-0.809,0.55-1.779,1.32-2.915,2.31
			C320.696,58.031,319.321,59.37,317.709,61.057z M333.658,50.826c1.32-1.466,2.421-3.025,3.301-4.675s1.87-3.611,2.97-5.885
			c0.952-1.98,1.814-4.51,2.585-7.59c0.77-3.08,1.301-6.105,1.595-9.075c0.292-2.97,0.292-5.555,0-7.755
			c-0.294-2.2-1.027-3.372-2.2-3.52c-1.027-0.146-1.979,0.239-2.859,1.155c-0.88,0.918-1.688,2.054-2.42,3.41
			c-0.734,1.357-1.358,2.805-1.87,4.345c-0.514,1.54-0.88,2.898-1.101,4.07c-0.294,1.468-0.494,2.788-0.604,3.96
			c-0.11,1.174-0.184,2.403-0.22,3.685c-0.038,1.284-0.093,2.678-0.165,4.18c-0.074,1.504-0.221,3.355-0.44,5.555
			c0,1.1,0.055,2.2,0.165,3.3s0.256,2.035,0.44,2.805c0.182,0.77,0.347,1.358,0.495,1.76
			C333.475,50.955,333.585,51.046,333.658,50.826z"/>
	</g>
	<g>
		<g>
			<path fill="#77C4BC" d="M0,102.859c0-0.319,0.288-0.608,0.608-0.608h1.216c0.352,0,0.608,0.289,0.608,0.608v13.343
				c0,3.648,2.271,6.496,6.016,6.496c3.775,0,6.08-2.784,6.08-6.432v-13.407c0-0.319,0.256-0.608,0.608-0.608h1.216
				c0.32,0,0.608,0.289,0.608,0.608v13.535c0,4.864-3.456,8.575-8.511,8.575c-5.024,0-8.448-3.711-8.448-8.575V102.859z"/>
			<path fill="#77C4BC" d="M28.256,113.163l-6.24-10.016c-0.256-0.416,0-0.896,0.544-0.896h1.728c0.224,0,0.448,0.129,0.544,0.289
				l4.928,8.479h0.032l4.991-8.479c0.096-0.16,0.288-0.289,0.544-0.289h1.728c0.544,0,0.8,0.48,0.544,0.896l-6.239,10.016
				l6.463,10.591c0.256,0.448,0,0.896-0.544,0.896h-1.472c-0.256,0-0.479-0.16-0.544-0.287l-5.471-9.056H29.76l-5.408,9.056
				c-0.096,0.16-0.288,0.287-0.544,0.287h-1.472c-0.576,0-0.832-0.479-0.576-0.896L28.256,113.163z"/>
			<path fill="#77C4BC" d="M50.783,102.859c0-0.319,0.256-0.608,0.608-0.608h8.288c3.84,0,6.976,3.008,6.976,6.816
				c0,2.943-1.952,5.407-4.736,6.527l4.384,8.127c0.224,0.416,0,0.928-0.544,0.928h-1.632c-0.288,0-0.448-0.16-0.512-0.287
				l-4.255-8.48h-6.112v8.16c0,0.32-0.288,0.607-0.608,0.607h-1.248c-0.352,0-0.608-0.287-0.608-0.607V102.859z M59.519,113.771
				c2.464,0,4.608-2.048,4.608-4.672c0-2.432-2.144-4.512-4.608-4.512h-6.208v9.184H59.519z"/>
			<path fill="#77C4BC" d="M75.967,111.53c3.36,0,5.792,2.496,5.792,5.855c0,0.225-0.032,0.641-0.064,0.865
				c-0.032,0.319-0.288,0.543-0.576,0.543h-9.215c0.128,2.145,2.016,4.16,4.288,4.16c1.344,0,2.432-0.512,3.168-0.96
				c0.448-0.256,0.64-0.416,0.896-0.063c0.192,0.256,0.352,0.479,0.544,0.735c0.224,0.288,0.352,0.479-0.128,0.832
				c-0.768,0.608-2.496,1.472-4.704,1.472c-3.872,0-6.271-3.039-6.271-6.719C69.695,114.635,72.095,111.53,75.967,111.53z
				 M79.551,117.003c-0.096-1.856-1.632-3.52-3.584-3.52c-2.144,0-3.808,1.535-4.032,3.52H79.551z"/>
			<path fill="#77C4BC" d="M85.119,122.858c0.128-0.192,0.352-0.641,0.448-0.801c0.16-0.256,0.512-0.319,0.864-0.096
				c0,0,1.376,1.12,3.008,1.12c1.312,0,2.08-0.672,2.08-1.536c0-1.119-0.96-1.632-2.816-2.56c-1.696-0.832-3.647-1.952-3.647-4.128
				c0-1.344,1.088-3.328,4.063-3.328c1.664,0,2.944,0.576,3.552,0.992c0.288,0.192,0.384,0.641,0.192,0.992l-0.256,0.512
				c-0.192,0.352-0.64,0.448-0.928,0.288c0,0-1.376-0.768-2.56-0.768c-1.44,0-1.824,0.735-1.824,1.28
				c0,1.055,1.056,1.535,2.368,2.176c2.208,1.056,4.192,2.047,4.192,4.352c0,1.855-1.792,3.615-4.416,3.615
				c-2.144,0-3.456-0.896-4.16-1.439C85.119,123.401,85.023,123.082,85.119,122.858z"/>
			<path fill="#77C4BC" d="M103.262,111.53c3.36,0,5.792,2.496,5.792,5.855c0,0.225-0.032,0.641-0.064,0.865
				c-0.032,0.319-0.288,0.543-0.576,0.543h-9.215c0.128,2.145,2.016,4.16,4.288,4.16c1.344,0,2.432-0.512,3.168-0.96
				c0.448-0.256,0.64-0.416,0.896-0.063c0.192,0.256,0.352,0.479,0.544,0.735c0.224,0.288,0.352,0.479-0.128,0.832
				c-0.768,0.608-2.496,1.472-4.704,1.472c-3.872,0-6.271-3.039-6.271-6.719C96.99,114.635,99.39,111.53,103.262,111.53z
				 M106.846,117.003c-0.096-1.856-1.632-3.52-3.584-3.52c-2.144,0-3.808,1.535-4.032,3.52H106.846z"/>
			<path fill="#77C4BC" d="M117.374,116.522c1.376,0,2.72,0.416,2.72,0.416c0.032-2.367-0.256-3.455-2.08-3.455
				c-1.76,0-3.264,0.479-3.84,0.703c-0.32,0.128-0.512-0.031-0.608-0.32l-0.256-0.799c-0.128-0.385,0.064-0.576,0.352-0.705
				c0.192-0.096,2.048-0.832,4.448-0.832c3.264,0,4.063,1.664,4.063,5.408v7.104c0,0.32-0.288,0.607-0.608,0.607h-0.608
				c-0.352,0-0.448-0.191-0.544-0.479l-0.256-0.864c-0.672,0.672-1.984,1.664-3.968,1.664c-2.24,0-3.936-1.632-3.936-4.191
				C112.254,118.347,114.078,116.522,117.374,116.522z M116.542,123.05c1.6,0,2.976-0.992,3.52-1.791v-2.528
				c-0.384-0.224-1.28-0.513-2.688-0.513c-1.792,0-3.072,0.896-3.072,2.561C114.302,122.058,115.166,123.05,116.542,123.05z"/>
			<path fill="#77C4BC" d="M127.262,112.459c0-0.32,0.288-0.608,0.608-0.608h0.608c0.256,0,0.48,0.16,0.544,0.448l0.256,0.928
				c0,0,1.184-1.696,3.84-1.696c0.96,0,2.56,0.16,2.24,1.057l-0.384,1.088c-0.16,0.416-0.448,0.416-0.768,0.288
				c-0.288-0.128-0.768-0.257-1.248-0.257c-2.432,0-3.488,1.793-3.488,1.793v8.543c0,0.32-0.288,0.607-0.608,0.607h-0.992
				c-0.32,0-0.608-0.287-0.608-0.607V112.459z"/>
			<path fill="#77C4BC" d="M144.093,111.53c1.92,0,3.424,0.769,4.576,2.24c0.224,0.288,0.16,0.672-0.128,0.896l-0.608,0.512
				c-0.48,0.447-0.64,0.128-0.928-0.128c-0.64-0.736-1.696-1.345-2.944-1.345c-2.4,0-4.256,1.984-4.256,4.545
				c0,2.559,1.824,4.607,4.224,4.607c1.92,0,2.656-0.961,3.392-1.664c0.384-0.385,0.608-0.32,0.96-0.064l0.352,0.256
				c0.32,0.225,0.416,0.576,0.224,0.896c-0.96,1.535-2.72,2.688-4.896,2.688c-3.552,0-6.56-2.848-6.56-6.688
				C137.502,114.507,140.605,111.53,144.093,111.53z"/>
			<path fill="#77C4BC" d="M153.246,102.859c0-0.319,0.288-0.608,0.608-0.608h0.992c0.32,0,0.608,0.289,0.608,0.608v10.367
				c0,0,1.696-1.696,4.288-1.696c3.168,0,4.959,2.017,4.959,5.76v6.752c0,0.32-0.288,0.607-0.608,0.607h-1.024
				c-0.32,0-0.608-0.287-0.608-0.607v-6.752c0-2.432-1.088-3.615-2.88-3.615c-2.432,0-4.127,1.792-4.127,1.792v8.575
				c0,0.32-0.288,0.607-0.608,0.607h-0.992c-0.32,0-0.608-0.287-0.608-0.607V102.859z"/>
			<path fill="#77C4BC" d="M175.069,111.53c3.36,0,5.792,2.496,5.792,5.855c0,0.225-0.032,0.641-0.064,0.865
				c-0.032,0.319-0.288,0.543-0.576,0.543h-9.215c0.128,2.145,2.016,4.16,4.288,4.16c1.344,0,2.432-0.512,3.168-0.96
				c0.448-0.256,0.64-0.416,0.896-0.063c0.192,0.256,0.352,0.479,0.544,0.735c0.224,0.288,0.352,0.479-0.128,0.832
				c-0.768,0.608-2.496,1.472-4.704,1.472c-3.872,0-6.271-3.039-6.271-6.719C168.797,114.635,171.197,111.53,175.069,111.53z
				 M178.653,117.003c-0.096-1.856-1.632-3.52-3.584-3.52c-2.144,0-3.808,1.535-4.031,3.52H178.653z"/>
			<path fill="#77C4BC" d="M184.989,112.459c0-0.32,0.288-0.608,0.608-0.608h0.608c0.256,0,0.48,0.16,0.544,0.448l0.256,0.928
				c0,0,1.184-1.696,3.84-1.696c0.96,0,2.56,0.16,2.24,1.057l-0.384,1.088c-0.16,0.416-0.448,0.416-0.768,0.288
				c-0.288-0.128-0.768-0.257-1.248-0.257c-2.432,0-3.488,1.793-3.488,1.793v8.543c0,0.32-0.288,0.607-0.608,0.607h-0.992
				c-0.32,0-0.608-0.287-0.608-0.607V112.459z"/>
			<path fill="#77C4BC" d="M208.86,112.683v-0.064l-0.768-0.832c-1.248-1.311-2.305-2.751-2.24-4.671
				c0-2.433,1.791-5.184,5.664-5.184c3.455,0,5.406,2.272,5.406,4.928c0,2.848-2.879,4.991-4.734,6.144l5.279,5.279
				c0.832-1.695,1.279-3.647,1.279-5.695c0-0.704,0.256-0.736,0.736-0.736h0.768c0.672,0,0.607,0.48,0.607,0.736
				c0,2.464-0.703,5.088-1.887,7.199l3.072,3.072c0.383,0.416,0.639,0.735-0.033,1.472l-0.383,0.353
				c-0.385,0.352-0.865,0.415-1.344-0.097l-2.721-2.815c-1.729,1.951-4.096,3.199-6.975,3.199c-4.033,0-6.176-2.752-6.176-5.887
				C204.413,115.626,207.132,113.706,208.86,112.683z M210.685,122.985c2.207,0,4.096-1.055,5.471-2.719l-5.92-6.208
				c-1.471,0.896-3.584,2.528-3.584,5.056C206.651,121.354,208.444,122.985,210.685,122.985z M214.685,106.923
				c0-1.535-1.186-3.104-3.361-3.104c-2.111,0-3.326,1.504-3.326,3.359c-0.064,1.377,0.83,2.465,2.047,3.648l0.703,0.703
				C212.188,110.667,214.685,109.228,214.685,106.923z"/>
			<path fill="#77C4BC" d="M234.747,102.859c0-0.319,0.256-0.608,0.576-0.608h7.168c6.176,0,11.23,5.024,11.23,11.168
				c0,6.207-5.055,11.23-11.23,11.23h-7.168c-0.32,0-0.576-0.287-0.576-0.607V102.859z M241.979,122.442
				c5.248,0,9.055-3.744,9.055-9.023c0-5.248-3.807-8.992-9.055-8.992h-4.801v18.016H241.979z"/>
			<path fill="#77C4BC" d="M263.292,111.53c3.359,0,5.791,2.496,5.791,5.855c0,0.225-0.031,0.641-0.064,0.865
				c-0.031,0.319-0.287,0.543-0.576,0.543h-9.215c0.129,2.145,2.016,4.16,4.289,4.16c1.344,0,2.432-0.512,3.166-0.96
				c0.449-0.256,0.641-0.416,0.896-0.063c0.191,0.256,0.352,0.479,0.545,0.735c0.223,0.288,0.352,0.479-0.129,0.832
				c-0.768,0.608-2.496,1.472-4.703,1.472c-3.871,0-6.271-3.039-6.271-6.719C257.021,114.635,259.421,111.53,263.292,111.53z
				 M266.876,117.003c-0.096-1.856-1.633-3.52-3.584-3.52c-2.145,0-3.809,1.535-4.031,3.52H266.876z"/>
			<path fill="#77C4BC" d="M272.442,122.858c0.129-0.192,0.352-0.641,0.449-0.801c0.16-0.256,0.512-0.319,0.863-0.096
				c0,0,1.375,1.12,3.008,1.12c1.312,0,2.08-0.672,2.08-1.536c0-1.119-0.961-1.632-2.816-2.56c-1.695-0.832-3.648-1.952-3.648-4.128
				c0-1.344,1.088-3.328,4.064-3.328c1.664,0,2.943,0.576,3.553,0.992c0.287,0.192,0.383,0.641,0.191,0.992l-0.256,0.512
				c-0.191,0.352-0.641,0.448-0.928,0.288c0,0-1.377-0.768-2.561-0.768c-1.439,0-1.824,0.735-1.824,1.28
				c0,1.055,1.057,1.535,2.369,2.176c2.207,1.056,4.191,2.047,4.191,4.352c0,1.855-1.793,3.615-4.416,3.615
				c-2.145,0-3.455-0.896-4.16-1.439C272.442,123.401,272.347,123.082,272.442,122.858z"/>
			<path fill="#77C4BC" d="M284.796,104.427c0-0.863,0.672-1.535,1.504-1.535c0.863,0,1.535,0.672,1.535,1.535
				c0,0.832-0.672,1.504-1.535,1.504C285.468,105.931,284.796,105.259,284.796,104.427z M285.243,112.459
				c0-0.32,0.287-0.608,0.607-0.608h0.992c0.32,0,0.607,0.288,0.607,0.608v11.583c0,0.32-0.287,0.607-0.607,0.607h-0.992
				c-0.32,0-0.607-0.287-0.607-0.607V112.459z"/>
			<path fill="#77C4BC" d="M293.499,120.362c0,0-1.023-1.312-1.023-3.199c0-2.977,2.078-5.633,5.406-5.633h5.408
				c0.352,0,0.607,0.256,0.607,0.608v0.544c0,0.225-0.127,0.512-0.352,0.544l-1.729,0.353c0,0,1.441,1.056,1.441,3.584
				c0,2.911-2.08,5.439-5.377,5.439c-2.047,0-3.039-0.801-3.039-0.801s-1.408,0.641-1.408,1.92c0,0.801,0.576,1.568,1.76,1.568
				h4.607c2.688,0,4.801,1.312,4.801,4.096c0,2.656-2.752,5.184-6.625,5.184c-4.287,0-6.143-2.305-6.143-4.416
				c0-1.92,1.535-2.783,1.855-2.976v-0.097c-0.832-0.223-2.336-1.055-2.336-3.039C291.354,121.61,293.499,120.362,293.499,120.362z
				 M297.946,132.489c2.111,0,4.287-1.184,4.287-3.039c0-0.416-0.191-2.08-2.432-2.08c-1.184,0-2.367,0-3.551,0
				c0,0-2.145,0.576-2.145,2.463C294.106,131.37,295.771,132.489,297.946,132.489z M301.114,117.099
				c0-2.111-1.279-3.584-3.199-3.584c-1.953,0-3.361,1.473-3.361,3.584s1.408,3.584,3.361,3.584
				C299.835,120.683,301.114,119.21,301.114,117.099z"/>
			<path fill="#77C4BC" d="M307.962,112.459c0-0.32,0.289-0.608,0.609-0.608h0.607c0.287,0,0.447,0.129,0.512,0.385l0.289,0.991
				c0,0,1.822-1.696,4.479-1.696c3.713,0,4.959,2.433,4.959,5.76v6.752c0,0.32-0.287,0.607-0.607,0.607h-1.023
				c-0.32,0-0.607-0.287-0.607-0.607v-6.752c0-2.432-1.088-3.615-2.881-3.615c-2.398,0-4.127,1.824-4.127,1.824v8.543
				c0,0.32-0.289,0.607-0.607,0.607h-0.992c-0.32,0-0.609-0.287-0.609-0.607V112.459z"/>
			<path fill="#77C4BC" d="M329.786,111.53c3.359,0,5.791,2.496,5.791,5.855c0,0.225-0.031,0.641-0.064,0.865
				c-0.031,0.319-0.287,0.543-0.576,0.543h-9.215c0.129,2.145,2.016,4.16,4.289,4.16c1.344,0,2.432-0.512,3.166-0.96
				c0.449-0.256,0.641-0.416,0.896-0.063c0.191,0.256,0.352,0.479,0.545,0.735c0.223,0.288,0.352,0.479-0.129,0.832
				c-0.768,0.608-2.496,1.472-4.703,1.472c-3.871,0-6.271-3.039-6.271-6.719C323.515,114.635,325.915,111.53,329.786,111.53z
				 M333.37,117.003c-0.096-1.856-1.633-3.52-3.584-3.52c-2.145,0-3.809,1.535-4.031,3.52H333.37z"/>
			<path fill="#77C4BC" d="M339.706,112.459c0-0.32,0.287-0.608,0.607-0.608h0.607c0.258,0,0.48,0.16,0.545,0.448l0.256,0.928
				c0,0,1.184-1.696,3.84-1.696c0.959,0,2.561,0.16,2.24,1.057l-0.385,1.088c-0.16,0.416-0.447,0.416-0.768,0.288
				c-0.287-0.128-0.768-0.257-1.248-0.257c-2.432,0-3.488,1.793-3.488,1.793v8.543c0,0.32-0.287,0.607-0.607,0.607h-0.992
				c-0.32,0-0.607-0.287-0.607-0.607V112.459z"/>
		</g>
	</g>
</g>
</svg>
