<?xml version="1.0" encoding="utf-8"?>
<!-- Generator: Adobe Illustrator 16.0.0, SVG Export Plug-In . SVG Version: 6.00 Build 0)  -->
<!DOCTYPE svg PUBLIC "-//W3C//DTD SVG 1.1//EN" "http://www.w3.org/Graphics/SVG/1.1/DTD/svg11.dtd">
<svg version="1.1" id="Layer_1" xmlns="http://www.w3.org/2000/svg" xmlns:xlink="http://www.w3.org/1999/xlink" x="0px" y="0px"
	 width="39.5px" height="39.5px" viewBox="0 0 39.5 39.5" enable-background="new 0 0 39.5 39.5" xml:space="preserve">
<g>
	<circle fill="#FFFFFF" stroke="#020202" stroke-width="2" stroke-miterlimit="10" cx="19.75" cy="19.75" r="18.75"/>
	<path id="_x31_28" fill="#010101" stroke="#FFFFFF" stroke-miterlimit="10" d="M31.733,12.784c-0.782,0.339-1.622,0.57-2.498,0.678
		c-0.008-0.017-0.014-0.031-0.021-0.047c0.93-0.545,1.646-1.409,2.001-2.444c-0.271,0.164-1.567,0.896-2.835,1.133
		c-0.826-0.906-2.017-1.476-3.34-1.476c-2.795,0-4.518,2.294-4.518,4.518c0,0.174,0.082,0.892,0.096,0.932
		c-3.756-0.082-7.088-1.89-9.233-4.66c-1.535,2.797,0.075,5.221,1.178,6.086c-0.641-0.01-1.25-0.149-1.806-0.391
		c0.117,2.152,1.673,3.919,3.723,4.358c-0.821,0.23-1.807,0.054-2.186-0.043c0.605,1.799,2.264,3.114,4.244,3.211
		c-3.03,2.227-6.298,2-6.351,1.999c1.921,1.15,4.168,1.828,6.569,1.813c8.801-0.058,13.32-7.869,12.783-13.475
		C30.505,14.527,31.283,13.748,31.733,12.784z"/>
</g>
</svg>
